<mxfile host="app.diagrams.net" modified="2024-01-14T15:31:55.930Z" agent="Mozilla/5.0 (Windows NT 10.0; Win64; x64) AppleWebKit/537.36 (KHTML, like Gecko) Chrome/120.0.0.0 Safari/537.36" etag="i2viquNI8HRqw-G5e_V6" version="22.1.18" type="device">
  <diagram name="Page-1" id="IRGv09Wo6PwKC1DRj2rO">
    <mxGraphModel dx="2140" dy="1665" grid="1" gridSize="10" guides="1" tooltips="1" connect="1" arrows="1" fold="1" page="1" pageScale="1" pageWidth="850" pageHeight="1100" math="0" shadow="0">
      <root>
        <mxCell id="0" />
        <mxCell id="1" parent="0" />
        <mxCell id="qME8ivpQWOHko3Mn1fOS-1" value="Actor" style="shape=umlActor;verticalLabelPosition=bottom;verticalAlign=top;outlineConnect=0;html=1;" parent="1" vertex="1">
          <mxGeometry x="250" y="270" width="30" height="60" as="geometry" />
        </mxCell>
        <mxCell id="qME8ivpQWOHko3Mn1fOS-5" value="Person" style="text;html=1;strokeColor=none;fillColor=none;align=center;verticalAlign=middle;whiteSpace=wrap;rounded=0;" parent="1" vertex="1">
          <mxGeometry x="235" y="340" width="60" height="30" as="geometry" />
        </mxCell>
        <mxCell id="qME8ivpQWOHko3Mn1fOS-26" value="" style="shape=flexArrow;endArrow=classic;html=1;rounded=0;" parent="1" edge="1">
          <mxGeometry width="50" height="50" relative="1" as="geometry">
            <mxPoint x="729.5" y="170" as="sourcePoint" />
            <mxPoint x="729.5" y="230" as="targetPoint" />
          </mxGeometry>
        </mxCell>
        <mxCell id="qME8ivpQWOHko3Mn1fOS-27" value="" style="shape=flexArrow;endArrow=classic;html=1;rounded=0;" parent="1" edge="1">
          <mxGeometry width="50" height="50" relative="1" as="geometry">
            <mxPoint x="400" y="50" as="sourcePoint" />
            <mxPoint x="449.5" y="110" as="targetPoint" />
          </mxGeometry>
        </mxCell>
        <mxCell id="qME8ivpQWOHko3Mn1fOS-28" value="" style="endArrow=none;html=1;rounded=0;exitX=0.5;exitY=0;exitDx=0;exitDy=0;exitPerimeter=0;entryX=0.5;entryY=1;entryDx=0;entryDy=0;" parent="1" source="qME8ivpQWOHko3Mn1fOS-1" edge="1" target="eLTKz8YQcAkIGBoytIng-16">
          <mxGeometry width="50" height="50" relative="1" as="geometry">
            <mxPoint x="264.5" y="240" as="sourcePoint" />
            <mxPoint x="250" y="160" as="targetPoint" />
          </mxGeometry>
        </mxCell>
        <mxCell id="qME8ivpQWOHko3Mn1fOS-29" value="" style="endArrow=none;html=1;rounded=0;entryX=0.803;entryY=0.992;entryDx=0;entryDy=0;entryPerimeter=0;" parent="1" edge="1" target="eLTKz8YQcAkIGBoytIng-17">
          <mxGeometry width="50" height="50" relative="1" as="geometry">
            <mxPoint x="240" y="260" as="sourcePoint" />
            <mxPoint x="80" y="160" as="targetPoint" />
          </mxGeometry>
        </mxCell>
        <mxCell id="qME8ivpQWOHko3Mn1fOS-30" value="" style="endArrow=none;html=1;rounded=0;entryX=0;entryY=0.5;entryDx=0;entryDy=0;" parent="1" target="eLTKz8YQcAkIGBoytIng-1" edge="1">
          <mxGeometry width="50" height="50" relative="1" as="geometry">
            <mxPoint x="290" y="310" as="sourcePoint" />
            <mxPoint x="670" y="220" as="targetPoint" />
          </mxGeometry>
        </mxCell>
        <mxCell id="qME8ivpQWOHko3Mn1fOS-31" value="" style="endArrow=none;html=1;rounded=0;entryX=0.36;entryY=1.028;entryDx=0;entryDy=0;entryPerimeter=0;" parent="1" target="eLTKz8YQcAkIGBoytIng-7" edge="1">
          <mxGeometry width="50" height="50" relative="1" as="geometry">
            <mxPoint x="290" y="270" as="sourcePoint" />
            <mxPoint x="470" y="190" as="targetPoint" />
          </mxGeometry>
        </mxCell>
        <mxCell id="qME8ivpQWOHko3Mn1fOS-32" value="" style="endArrow=none;html=1;rounded=0;exitX=0.5;exitY=0;exitDx=0;exitDy=0;" parent="1" target="qME8ivpQWOHko3Mn1fOS-5" edge="1">
          <mxGeometry width="50" height="50" relative="1" as="geometry">
            <mxPoint x="265" y="450" as="sourcePoint" />
            <mxPoint x="360" y="400" as="targetPoint" />
          </mxGeometry>
        </mxCell>
        <mxCell id="eLTKz8YQcAkIGBoytIng-1" value="Inserare Exercitiu" style="ellipse;whiteSpace=wrap;html=1;" parent="1" vertex="1">
          <mxGeometry x="670" y="230" width="120" height="80" as="geometry" />
        </mxCell>
        <mxCell id="eLTKz8YQcAkIGBoytIng-2" value="Inserare Antrenament" style="ellipse;whiteSpace=wrap;html=1;" parent="1" vertex="1">
          <mxGeometry x="670" y="90" width="120" height="80" as="geometry" />
        </mxCell>
        <mxCell id="eLTKz8YQcAkIGBoytIng-7" value="Inserare Aliment" style="ellipse;whiteSpace=wrap;html=1;" parent="1" vertex="1">
          <mxGeometry x="390" y="110" width="120" height="80" as="geometry" />
        </mxCell>
        <mxCell id="eLTKz8YQcAkIGBoytIng-8" value="Inserare Mic dejun" style="ellipse;whiteSpace=wrap;html=1;" parent="1" vertex="1">
          <mxGeometry x="300" y="-20" width="120" height="80" as="geometry" />
        </mxCell>
        <mxCell id="eLTKz8YQcAkIGBoytIng-9" value="Inserare Pranz" style="ellipse;whiteSpace=wrap;html=1;" parent="1" vertex="1">
          <mxGeometry x="420" y="-20" width="120" height="80" as="geometry" />
        </mxCell>
        <mxCell id="eLTKz8YQcAkIGBoytIng-10" value="Inserare Cina" style="ellipse;whiteSpace=wrap;html=1;" parent="1" vertex="1">
          <mxGeometry x="530" y="30" width="120" height="80" as="geometry" />
        </mxCell>
        <mxCell id="eLTKz8YQcAkIGBoytIng-12" value="Inserare Gustare" style="ellipse;whiteSpace=wrap;html=1;" parent="1" vertex="1">
          <mxGeometry x="545" y="160" width="120" height="80" as="geometry" />
        </mxCell>
        <mxCell id="eLTKz8YQcAkIGBoytIng-13" value="" style="shape=flexArrow;endArrow=classic;html=1;rounded=0;" parent="1" edge="1">
          <mxGeometry width="50" height="50" relative="1" as="geometry">
            <mxPoint x="479.5" y="60" as="sourcePoint" />
            <mxPoint x="479.5" y="120" as="targetPoint" />
          </mxGeometry>
        </mxCell>
        <mxCell id="eLTKz8YQcAkIGBoytIng-14" value="" style="shape=flexArrow;endArrow=classic;html=1;rounded=0;" parent="1" edge="1">
          <mxGeometry width="50" height="50" relative="1" as="geometry">
            <mxPoint x="540" y="90" as="sourcePoint" />
            <mxPoint x="510" y="130" as="targetPoint" />
          </mxGeometry>
        </mxCell>
        <mxCell id="eLTKz8YQcAkIGBoytIng-15" value="" style="shape=flexArrow;endArrow=classic;html=1;rounded=0;" parent="1" edge="1">
          <mxGeometry width="50" height="50" relative="1" as="geometry">
            <mxPoint x="545" y="190" as="sourcePoint" />
            <mxPoint x="500" y="170" as="targetPoint" />
          </mxGeometry>
        </mxCell>
        <mxCell id="eLTKz8YQcAkIGBoytIng-16" value="Generare Mic dejun" style="ellipse;whiteSpace=wrap;html=1;" parent="1" vertex="1">
          <mxGeometry x="-30" y="30" width="120" height="80" as="geometry" />
        </mxCell>
        <mxCell id="eLTKz8YQcAkIGBoytIng-17" value="Generare Plan Alimentar" style="ellipse;whiteSpace=wrap;html=1;" parent="1" vertex="1">
          <mxGeometry x="-90" y="120" width="120" height="80" as="geometry" />
        </mxCell>
        <mxCell id="eLTKz8YQcAkIGBoytIng-18" value="Calculeaza Calorii" style="ellipse;whiteSpace=wrap;html=1;" parent="1" vertex="1">
          <mxGeometry x="20" y="270" width="120" height="80" as="geometry" />
        </mxCell>
        <mxCell id="eLTKz8YQcAkIGBoytIng-19" value="" style="endArrow=none;html=1;rounded=0;exitX=1;exitY=0.5;exitDx=0;exitDy=0;" parent="1" source="eLTKz8YQcAkIGBoytIng-18" edge="1">
          <mxGeometry width="50" height="50" relative="1" as="geometry">
            <mxPoint x="200" y="350" as="sourcePoint" />
            <mxPoint x="250" y="300" as="targetPoint" />
          </mxGeometry>
        </mxCell>
        <mxCell id="eLTKz8YQcAkIGBoytIng-20" value="Cautare Alimente" style="ellipse;whiteSpace=wrap;html=1;" parent="1" vertex="1">
          <mxGeometry x="205" y="450" width="120" height="80" as="geometry" />
        </mxCell>
        <mxCell id="deTT-lv1E1fPcaEmjeF_-1" value="Generare Pranz" style="ellipse;whiteSpace=wrap;html=1;" vertex="1" parent="1">
          <mxGeometry x="85" y="-10" width="120" height="80" as="geometry" />
        </mxCell>
        <mxCell id="deTT-lv1E1fPcaEmjeF_-3" value="Generare Cina" style="ellipse;whiteSpace=wrap;html=1;" vertex="1" parent="1">
          <mxGeometry x="190" y="40" width="120" height="80" as="geometry" />
        </mxCell>
        <mxCell id="deTT-lv1E1fPcaEmjeF_-4" value="Generare Gustare" style="ellipse;whiteSpace=wrap;html=1;" vertex="1" parent="1">
          <mxGeometry x="270" y="130" width="120" height="80" as="geometry" />
        </mxCell>
        <mxCell id="deTT-lv1E1fPcaEmjeF_-5" value="" style="endArrow=none;html=1;rounded=0;entryX=0.405;entryY=1.038;entryDx=0;entryDy=0;entryPerimeter=0;" edge="1" parent="1" target="deTT-lv1E1fPcaEmjeF_-1">
          <mxGeometry width="50" height="50" relative="1" as="geometry">
            <mxPoint x="260" y="260" as="sourcePoint" />
            <mxPoint x="140" y="90" as="targetPoint" />
          </mxGeometry>
        </mxCell>
        <mxCell id="deTT-lv1E1fPcaEmjeF_-6" value="" style="endArrow=none;html=1;rounded=0;" edge="1" parent="1">
          <mxGeometry width="50" height="50" relative="1" as="geometry">
            <mxPoint x="270" y="260" as="sourcePoint" />
            <mxPoint x="220" y="115" as="targetPoint" />
          </mxGeometry>
        </mxCell>
        <mxCell id="deTT-lv1E1fPcaEmjeF_-7" value="" style="endArrow=none;html=1;rounded=0;" edge="1" parent="1">
          <mxGeometry width="50" height="50" relative="1" as="geometry">
            <mxPoint x="280" y="260" as="sourcePoint" />
            <mxPoint x="310" y="210" as="targetPoint" />
          </mxGeometry>
        </mxCell>
        <mxCell id="deTT-lv1E1fPcaEmjeF_-8" value="Cautare Exercitii" style="ellipse;whiteSpace=wrap;html=1;" vertex="1" parent="1">
          <mxGeometry x="365" y="390" width="120" height="80" as="geometry" />
        </mxCell>
        <mxCell id="deTT-lv1E1fPcaEmjeF_-9" value="" style="endArrow=none;html=1;rounded=0;" edge="1" parent="1" source="deTT-lv1E1fPcaEmjeF_-8">
          <mxGeometry width="50" height="50" relative="1" as="geometry">
            <mxPoint x="275" y="370" as="sourcePoint" />
            <mxPoint x="290" y="330" as="targetPoint" />
          </mxGeometry>
        </mxCell>
      </root>
    </mxGraphModel>
  </diagram>
</mxfile>
